{
  "title": "Force.Majeure.2014.BRRip.x264.HORiZON-ArtSubs",
  "uid": 11675589,
  "size": 2158522677,
  "categoryP": "video",
  "categoryS": "movies",
  "magnet": "?xt=urn:btih:79bf7e61d805bbdac5ceff7fb76efd4b308d71c8&amp;dn=Force.Majeure.2014.BRRip.x264.HORiZON-ArtSubs&amp;tr=udp%3A%2F%2Ftracker.openbittorrent.com%3A80&amp;tr=udp%3A%2F%2Fopen.demonii.com%3A1337&amp;tr=udp%3A%2F%2Ftracker.coppersurfer.tk%3A6969&amp;tr=udp%3A%2F%2Fexodus.desync.com%3A6969",
  "seeders": 65,
  "leechers": 2,
  "uploader": "lletaif",
  "files": 3,
  "time": 1422849218,
  "description": "Media Info:\n\nGeneral\nUnique ID                                : 192147505408285408890560439529072671644 (0x908E4370D661B8F8B65DA02B461EBB9C)\nComplete name                            : Force.Majeure.2014.BRRip.x264.HORiZON-ArtSubs.mkv\nFormat                                   : Matroska\nFormat version                           : Version 2\nFile size                                : 1.99 GiB\nDuration                                 : 1h 59mn\nOverall bit rate mode                    : Variable\nOverall bit rate                         : 2 385 Kbps\nMovie name                               : Force.Majeure.2014.LIMITED.720p.BluRay.x264-GNiSTOR\nEncoded date                             : UTC 2015-01-30 15:16:02\nWriting application                      : DVDFab 9.1.4.0\nWriting library                          : libebml v0.7.8 + libmatroska v0.8.1\n\nVideo\nID                                       : 1\nFormat                                   : AVC\nFormat/Info                              : Advanced Video Codec\nFormat profile                           : &lt;a class=&quot;__cf_email__&quot; href=&quot;/cdn-cgi/l/email-protection&quot; data-cfemail=&quot;2961404e4169651d0718&quot;&gt;[email&amp;#160;protected]&lt;/a&gt;&lt;script cf-hash='f9e31' type=&quot;text/javascript&quot;&gt;\n/* &lt;![CDATA[ */!function(){try{var t=&quot;currentScript&quot;in document?document.currentScript:function(){for(var t=document.getElementsByTagName(&quot;script&quot;),e=t.length;e--;)if(t[e].getAttribute(&quot;cf-hash&quot;))return t[e]}();if(t&amp;&amp;t.previousSibling){var e,r,n,i,c=t.previousSibling,a=c.getAttribute(&quot;data-cfemail&quot;);if(a){for(e=&quot;&quot;,r=parseInt(a.substr(0,2),16),n=2;a.length-n;n+=2)i=parseInt(a.substr(n,2),16)^r,e+=String.fromCharCode(i);e=document.createTextNode(e),c.parentNode.replaceChild(e,c)}}}catch(u){}}();/* ]]&gt; */&lt;/script&gt;\nFormat settings, CABAC                   : Yes\nFormat settings, ReFrames                : 2 frames\nCodec ID                                 : V_MPEG4/ISO/AVC\nDuration                                 : 1h 59mn\nBit rate mode                            : Variable\nBit rate                                 : 1 889 Kbps\nMaximum bit rate                         : 2 911 Kbps\nWidth                                    : 1 152 pixels\nHeight                                   : 484 pixels\nDisplay aspect ratio                     : 2.40:1\nFrame rate mode                          : Constant\nFrame rate                               : 23.976 fps\nColor space                              : YUV\nChroma subsampling                       : 4:2:0\nBit depth                                : 8 bits\nScan type                                : Progressive\nBits/(Pixel*Frame)                       : 0.141\nStream size                              : 1.58 GiB (79%)\nDefault                                  : Yes\nForced                                   : No\n\nAudio\nID                                       : 2\nFormat                                   : AC-3\nFormat/Info                              : Audio Coding 3\nMode extension                           : CM (complete main)\nFormat settings, Endianness              : Big\nCodec ID                                 : A_AC3\nDuration                                 : 1h 59mn\nBit rate mode                            : Constant\nBit rate                                 : 448 Kbps\nChannel(s)                               : 6 channels\nChannel positions                        : Front: L C R, Side: L R, LFE\nSampling rate                            : 48.0 KHz\nBit depth                                : 16 bits\nCompression mode                         : Lossy\nStream size                              : 383 MiB (19%)\nLanguage                                 : Swedish\nDefault                                  : Yes\nForced                                   : No",
  "parsed": {
    "xt": "urn:btih:79bf7e61d805bbdac5ceff7fb76efd4b308d71c8",
    "dn": "Force.Majeure.2014.BRRip.x264.HORiZON-ArtSubs",
    "tr": [
      "udp://exodus.desync.com:6969",
      "udp://open.demonii.com:1337",
      "udp://tracker.coppersurfer.tk:6969",
      "udp://tracker.openbittorrent.com:80"
    ],
    "infoHash": "79bf7e61d805bbdac5ceff7fb76efd4b308d71c8",
    "infoHashBuffer": {
      "type": "Buffer",
      "data": [
        121,
        191,
        126,
        97,
        216,
        5,
        187,
        218,
        197,
        206,
        255,
        127,
        183,
        110,
        253,
        75,
        48,
        141,
        113,
        200
      ]
    },
    "name": "Force.Majeure.2014.BRRip.x264.HORiZON-ArtSubs",
    "announce": [
      "udp://exodus.desync.com:6969",
      "udp://open.demonii.com:1337",
      "udp://tracker.coppersurfer.tk:6969",
      "udp://tracker.openbittorrent.com:80"
    ],
    "urlList": []
  },
  "previous": 12,
  "peers": 9,
  "last_updated": "2016-12-27T04:33:29.685Z"
}